<svg xmlns="http://www.w3.org/2000/svg" height="512pt" version="1.1" viewBox="-15 0 512 512" width="512pt">
<g id="surface1">
<path d="M 342.933594 421 L 387.875 172.820312 L 354.757812 90 L 303.988281 90 L 332.109375 160.3125 L 284.898438 421 Z M 342.933594 421 " style=" stroke:none;fill-rule:nonzero;fill:#e3e8f4;fill-opacity:1;" />
<path d="M 268.539062 512 L 418.050781 512 L 481.054688 163.433594 L 415.679688 0 L 267.996094 0 L 291.992188 60 L 375.058594 60 L 418.929688 169.6875 L 367.984375 451 L 279.445312 451 Z M 268.539062 512 " style=" stroke:none;fill-rule:nonzero;fill:#e3e8f4;fill-opacity:1;" />
<path d="M 65.375 0 L 0 163.433594 L 63.003906 512 L 238.050781 512 L 301.054688 163.433594 L 235.679688 0 Z M 225.527344 210 L 165.527344 210 L 165.527344 391 L 135.527344 391 L 135.527344 210 L 75.527344 210 L 75.527344 180 L 135.527344 180 L 135.527344 120 L 165.527344 120 L 165.527344 180 L 225.527344 180 Z M 225.527344 210 " style=" stroke:none;fill-rule:nonzero;fill:#e3e8f4;fill-opacity:1;" />
</g>
</svg>